<svg width="64" height="64" viewBox="0 0 64 64" fill="none" xmlns="http://www.w3.org/2000/svg">
<path d="M61.97 56.76L57 36.88V23C56.9976 22.2051 56.6808 21.4434 56.1187 20.8813C55.5566 20.3192 54.7949 20.0024 54 20H52V18H57C57.2652 18 57.5196 17.8946 57.7071 17.7071C57.8946 17.5196 58 17.2652 58 17V12C58 10.9391 57.5786 9.92172 56.8284 9.17157C56.0783 8.42143 55.0609 8 54 8H39C37.6739 8 36.4021 8.52678 35.4645 9.46447C34.5268 10.4021 34 11.6739 34 13V20H23V18H28C28.7949 17.9976 29.5566 17.6808 30.1187 17.1187C30.6808 16.5566 30.9976 15.7949 31 15V5C30.9976 4.20508 30.6808 3.4434 30.1187 2.8813C29.5566 2.31921 28.7949 2.00237 28 2H10C9.20508 2.00237 8.4434 2.31921 7.8813 2.8813C7.31921 3.4434 7.00237 4.20508 7 5V15C7.00237 15.7949 7.31921 16.5566 7.8813 17.1187C8.4434 17.6808 9.20508 17.9976 10 18H15V20H10C9.20508 20.0024 8.4434 20.3192 7.8813 20.8813C7.31921 21.4434 7.00237 22.2051 7 23V36.88L2.03 56.76C2.03 56.77 2 56.93 2 57V59C2.00237 59.7949 2.31921 60.5566 2.8813 61.1187C3.4434 61.6808 4.20508 61.9976 5 62H59C59.7949 61.9976 60.5566 61.6808 61.1187 61.1187C61.6808 60.5566 61.9976 59.7949 62 59V57C61.9945 56.9195 61.9845 56.8394 61.97 56.76ZM52 12C52 11.4696 52.2107 10.9609 52.5858 10.5858C52.9609 10.2107 53.4696 10 54 10C54.5304 10 55.0391 10.2107 55.4142 10.5858C55.7893 10.9609 56 11.4696 56 12V16H52V12ZM36 13C36.0024 12.2051 36.3192 11.4434 36.8813 10.8813C37.4434 10.3192 38.2051 10.0024 39 10H50.56C50.1963 10.6039 50.0028 11.295 50 12V32H36V13ZM10 16C9.73478 16 9.48043 15.8946 9.29289 15.7071C9.10536 15.5196 9 15.2652 9 15V5C9 4.73478 9.10536 4.48043 9.29289 4.29289C9.48043 4.10536 9.73478 4 10 4H28C28.2652 4 28.5196 4.10536 28.7071 4.29289C28.8946 4.48043 29 4.73478 29 5V15C29 15.2652 28.8946 15.5196 28.7071 15.7071C28.5196 15.8946 28.2652 16 28 16H10ZM21 18V20H17V18H21ZM9 23C9 22.7348 9.10536 22.4804 9.29289 22.2929C9.48043 22.1054 9.73478 22 10 22H34V32H33C32.7348 32 32.4804 32.1054 32.2929 32.2929C32.1054 32.4804 32 32.7348 32 33C32 33.2652 32.1054 33.5196 32.2929 33.7071C32.4804 33.8946 32.7348 34 33 34H53C53.2652 34 53.5196 33.8946 53.7071 33.7071C53.8946 33.5196 54 33.2652 54 33C54 32.7348 53.8946 32.4804 53.7071 32.2929C53.5196 32.1054 53.2652 32 53 32H52V22H54C54.2652 22 54.5196 22.1054 54.7071 22.2929C54.8946 22.4804 55 22.7348 55 23V36H9V23ZM8.78 38H55.22L59.72 56H4.28L8.78 38ZM60 59C60 59.2652 59.8946 59.5196 59.7071 59.7071C59.5196 59.8946 59.2652 60 59 60H5C4.73478 60 4.48043 59.8946 4.29289 59.7071C4.10536 59.5196 4 59.2652 4 59V58H60V59Z" fill="#ffffff" id="id_101"></path>
<path d="M28 24H12C11.7348 24 11.4804 24.1054 11.2929 24.2929C11.1054 24.4804 11 24.7348 11 25V33C11 33.2652 11.1054 33.5196 11.2929 33.7071C11.4804 33.8946 11.7348 34 12 34H28C28.2652 34 28.5196 33.8946 28.7071 33.7071C28.8946 33.5196 29 33.2652 29 33V25C29 24.7348 28.8946 24.4804 28.7071 24.2929C28.5196 24.1054 28.2652 24 28 24ZM27 32H13V26H27V32Z" fill="#ffffff" id="id_102"></path>
<path d="M28 14V6C28 5.73478 27.8946 5.48043 27.7071 5.29289C27.5196 5.10536 27.2652 5 27 5H11C10.7348 5 10.4804 5.10536 10.2929 5.29289C10.1054 5.48043 10 5.73478 10 6V14C10 14.2652 10.1054 14.5196 10.2929 14.7071C10.4804 14.8946 10.7348 15 11 15H27C27.2652 15 27.5196 14.8946 27.7071 14.7071C27.8946 14.5196 28 14.2652 28 14ZM26 13H12V7H26V13Z" fill="#ffffff" id="id_103"></path>
<path d="M39 18H47C47.2652 18 47.5196 17.8946 47.7071 17.7071C47.8946 17.5196 48 17.2652 48 17C48 16.7348 47.8946 16.4804 47.7071 16.2929C47.5196 16.1054 47.2652 16 47 16H39C38.7348 16 38.4804 16.1054 38.2929 16.2929C38.1054 16.4804 38 16.7348 38 17C38 17.2652 38.1054 17.5196 38.2929 17.7071C38.4804 17.8946 38.7348 18 39 18Z" fill="#ffffff" id="id_104"></path>
<path d="M39 14H47C47.2652 14 47.5196 13.8946 47.7071 13.7071C47.8946 13.5196 48 13.2652 48 13C48 12.7348 47.8946 12.4804 47.7071 12.2929C47.5196 12.1054 47.2652 12 47 12H39C38.7348 12 38.4804 12.1054 38.2929 12.2929C38.1054 12.4804 38 12.7348 38 13C38 13.2652 38.1054 13.5196 38.2929 13.7071C38.4804 13.8946 38.7348 14 39 14Z" fill="#ffffff" id="id_105"></path>
<path d="M39 22H47C47.2652 22 47.5196 21.8946 47.7071 21.7071C47.8946 21.5196 48 21.2652 48 21C48 20.7348 47.8946 20.4804 47.7071 20.2929C47.5196 20.1054 47.2652 20 47 20H39C38.7348 20 38.4804 20.1054 38.2929 20.2929C38.1054 20.4804 38 20.7348 38 21C38 21.2652 38.1054 21.5196 38.2929 21.7071C38.4804 21.8946 38.7348 22 39 22Z" fill="#ffffff" id="id_106"></path>
<path d="M39 26H47C47.2652 26 47.5196 25.8946 47.7071 25.7071C47.8946 25.5196 48 25.2652 48 25C48 24.7348 47.8946 24.4804 47.7071 24.2929C47.5196 24.1054 47.2652 24 47 24H39C38.7348 24 38.4804 24.1054 38.2929 24.2929C38.1054 24.4804 38 24.7348 38 25C38 25.2652 38.1054 25.5196 38.2929 25.7071C38.4804 25.8946 38.7348 26 39 26Z" fill="#ffffff" id="id_107"></path>
<path d="M39 30H47C47.2652 30 47.5196 29.8946 47.7071 29.7071C47.8946 29.5196 48 29.2652 48 29C48 28.7348 47.8946 28.4804 47.7071 28.2929C47.5196 28.1054 47.2652 28 47 28H39C38.7348 28 38.4804 28.1054 38.2929 28.2929C38.1054 28.4804 38 28.7348 38 29C38 29.2652 38.1054 29.5196 38.2929 29.7071C38.4804 29.8946 38.7348 30 39 30Z" fill="#ffffff" id="id_108"></path>
<path d="M38 40H34C33.7348 40 33.4804 40.1054 33.2929 40.2929C33.1054 40.4804 33 40.7348 33 41V45C33 45.2652 33.1054 45.5196 33.2929 45.7071C33.4804 45.8946 33.7348 46 34 46H38C38.2652 46 38.5196 45.8946 38.7071 45.7071C38.8946 45.5196 39 45.2652 39 45V41C39 40.7348 38.8946 40.4804 38.7071 40.2929C38.5196 40.1054 38.2652 40 38 40ZM37 44H35V42H37V44Z" fill="#ffffff" id="id_109"></path>
<path d="M38 48H34C33.7348 48 33.4804 48.1054 33.2929 48.2929C33.1054 48.4804 33 48.7348 33 49V53C33 53.2652 33.1054 53.5196 33.2929 53.7071C33.4804 53.8946 33.7348 54 34 54H38C38.2652 54 38.5196 53.8946 38.7071 53.7071C38.8946 53.5196 39 53.2652 39 53V49C39 48.7348 38.8946 48.4804 38.7071 48.2929C38.5196 48.1054 38.2652 48 38 48ZM37 52H35V50H37V52Z" fill="#ffffff" id="id_110"></path>
<path d="M30 40H26C25.7348 40 25.4804 40.1054 25.2929 40.2929C25.1054 40.4804 25 40.7348 25 41V45C25 45.2652 25.1054 45.5196 25.2929 45.7071C25.4804 45.8946 25.7348 46 26 46H30C30.2652 46 30.5196 45.8946 30.7071 45.7071C30.8946 45.5196 31 45.2652 31 45V41C31 40.7348 30.8946 40.4804 30.7071 40.2929C30.5196 40.1054 30.2652 40 30 40ZM29 44H27V42H29V44Z" fill="#ffffff" id="id_111"></path>
<path d="M30 48H26C25.7348 48 25.4804 48.1054 25.2929 48.2929C25.1054 48.4804 25 48.7348 25 49V53C25 53.2652 25.1054 53.5196 25.2929 53.7071C25.4804 53.8946 25.7348 54 26 54H30C30.2652 54 30.5196 53.8946 30.7071 53.7071C30.8946 53.5196 31 53.2652 31 53V49C31 48.7348 30.8946 48.4804 30.7071 48.2929C30.5196 48.1054 30.2652 48 30 48ZM29 52H27V50H29V52Z" fill="#ffffff" id="id_112"></path>
<path d="M54 40H50C49.7348 40 49.4804 40.1054 49.2929 40.2929C49.1054 40.4804 49 40.7348 49 41V45C49 45.2652 49.1054 45.5196 49.2929 45.7071C49.4804 45.8946 49.7348 46 50 46H54C54.2652 46 54.5196 45.8946 54.7071 45.7071C54.8946 45.5196 55 45.2652 55 45V41C55 40.7348 54.8946 40.4804 54.7071 40.2929C54.5196 40.1054 54.2652 40 54 40ZM53 44H51V42H53V44Z" fill="#ffffff" id="id_113"></path>
<path d="M54 48H50C49.7348 48 49.4804 48.1054 49.2929 48.2929C49.1054 48.4804 49 48.7348 49 49V53C49 53.2652 49.1054 53.5196 49.2929 53.7071C49.4804 53.8946 49.7348 54 50 54H54C54.2652 54 54.5196 53.8946 54.7071 53.7071C54.8946 53.5196 55 53.2652 55 53V49C55 48.7348 54.8946 48.4804 54.7071 48.2929C54.5196 48.1054 54.2652 48 54 48ZM53 52H51V50H53V52Z" fill="#ffffff" id="id_114"></path>
<path d="M46 40H42C41.7348 40 41.4804 40.1054 41.2929 40.2929C41.1054 40.4804 41 40.7348 41 41V45C41 45.2652 41.1054 45.5196 41.2929 45.7071C41.4804 45.8946 41.7348 46 42 46H46C46.2652 46 46.5196 45.8946 46.7071 45.7071C46.8946 45.5196 47 45.2652 47 45V41C47 40.7348 46.8946 40.4804 46.7071 40.2929C46.5196 40.1054 46.2652 40 46 40ZM45 44H43V42H45V44Z" fill="#ffffff" id="id_115"></path>
<path d="M46 48H42C41.7348 48 41.4804 48.1054 41.2929 48.2929C41.1054 48.4804 41 48.7348 41 49V53C41 53.2652 41.1054 53.5196 41.2929 53.7071C41.4804 53.8946 41.7348 54 42 54H46C46.2652 54 46.5196 53.8946 46.7071 53.7071C46.8946 53.5196 47 53.2652 47 53V49C47 48.7348 46.8946 48.4804 46.7071 48.2929C46.5196 48.1054 46.2652 48 46 48ZM45 52H43V50H45V52Z" fill="#ffffff" id="id_116"></path>
<path d="M22 40H18C17.7348 40 17.4804 40.1054 17.2929 40.2929C17.1054 40.4804 17 40.7348 17 41V45C17 45.2652 17.1054 45.5196 17.2929 45.7071C17.4804 45.8946 17.7348 46 18 46H22C22.2652 46 22.5196 45.8946 22.7071 45.7071C22.8946 45.5196 23 45.2652 23 45V41C23 40.7348 22.8946 40.4804 22.7071 40.2929C22.5196 40.1054 22.2652 40 22 40ZM21 44H19V42H21V44Z" fill="#ffffff" id="id_117"></path>
<path d="M22 48H18C17.7348 48 17.4804 48.1054 17.2929 48.2929C17.1054 48.4804 17 48.7348 17 49V53C17 53.2652 17.1054 53.5196 17.2929 53.7071C17.4804 53.8946 17.7348 54 18 54H22C22.2652 54 22.5196 53.8946 22.7071 53.7071C22.8946 53.5196 23 53.2652 23 53V49C23 48.7348 22.8946 48.4804 22.7071 48.2929C22.5196 48.1054 22.2652 48 22 48ZM21 52H19V50H21V52Z" fill="#ffffff" id="id_118"></path>
<path d="M14 40H10C9.73478 40 9.48043 40.1054 9.29289 40.2929C9.10536 40.4804 9 40.7348 9 41V45C9 45.2652 9.10536 45.5196 9.29289 45.7071C9.48043 45.8946 9.73478 46 10 46H14C14.2652 46 14.5196 45.8946 14.7071 45.7071C14.8946 45.5196 15 45.2652 15 45V41C15 40.7348 14.8946 40.4804 14.7071 40.2929C14.5196 40.1054 14.2652 40 14 40ZM13 44H11V42H13V44Z" fill="#ffffff" id="id_119"></path>
<path d="M14 48H10C9.73478 48 9.48043 48.1054 9.29289 48.2929C9.10536 48.4804 9 48.7348 9 49V53C9 53.2652 9.10536 53.5196 9.29289 53.7071C9.48043 53.8946 9.73478 54 10 54H14C14.2652 54 14.5196 53.8946 14.7071 53.7071C14.8946 53.5196 15 53.2652 15 53V49C15 48.7348 14.8946 48.4804 14.7071 48.2929C14.5196 48.1054 14.2652 48 14 48ZM13 52H11V50H13V52Z" fill="#ffffff" id="id_120"></path>
</svg>