<svg version="1.1" id="Layer_1" xmlns="http://www.w3.org/2000/svg" xmlns:xlink="http://www.w3.org/1999/xlink" x="0px" y="0px" viewBox="0 0 64 64" style="enable-background:new 0 0 64 64;" xml:space="preserve">
<style type="text/css">
	.st0{fill:#231F20;}
</style>
<g>
<path d="M48.29,18.97h-5.46v-4.15c0-0.44-0.36-0.8-0.8-0.8H21.96c-0.44,0-0.8,0.36-0.8,0.8v4.15H15.7c-3.02,0-5.49,2.47-5.49,5.5
		v12.13c0,3.04,2.46,5.51,5.49,5.51h4.98v7.08c0,0.44,0.36,0.8,0.8,0.8H42.5c0.44,0,0.8-0.36,0.8-0.8V42.1h4.98
		c3.03,0,5.5-2.47,5.5-5.51V24.47C53.78,21.43,51.32,18.97,48.29,18.97z M22.76,15.62h18.47v3.35H22.76V15.62z M22.29,48.38v-7
		c0-0.03,0.02-0.05,0.02-0.08v-3.29h19.4v3.29c0,0.01,0.01,0.02,0.01,0.03v7.05H22.29z M52.18,36.59c0,2.15-1.75,3.91-3.9,3.91H43.3
		v-3.29c0-0.22-0.09-0.42-0.24-0.57c-0.14-0.15-0.35-0.24-0.57-0.24h-21c-0.11,0-0.22,0.02-0.31,0.06c-0.29,0.12-0.5,0.4-0.5,0.74
		v3.29H15.7c-2.14,0-3.89-1.75-3.89-3.91V24.47c0-2.15,1.74-3.9,3.89-3.9h6.26h20.07h6.26c2.15,0,3.9,1.75,3.9,3.9V36.59z" id="id_125" style="fill: rgb(255, 255, 255);"></path>
<path d="M40.09,39.62H24.15c-0.44,0-0.8,0.36-0.8,0.8c0,0.44,0.36,0.8,0.8,0.8h15.94c0.44,0,0.8-0.36,0.8-0.8
		C40.89,39.98,40.53,39.62,40.09,39.62z" id="id_126" style="fill: rgb(255, 255, 255);"></path>
<path d="M40.09,42.39H24.15c-0.44,0-0.8,0.36-0.8,0.8c0,0.44,0.36,0.8,0.8,0.8h15.94c0.44,0,0.8-0.36,0.8-0.8
		C40.89,42.75,40.53,42.39,40.09,42.39z" id="id_127" style="fill: rgb(255, 255, 255);"></path>
<path d="M40.09,45.17H24.15c-0.44,0-0.8,0.36-0.8,0.8s0.36,0.8,0.8,0.8h15.94c0.44,0,0.8-0.36,0.8-0.8S40.53,45.17,40.09,45.17z" id="id_128" style="fill: rgb(255, 255, 255);"></path>
</g>
</svg>